<svg fill="none" xmlns="http://www.w3.org/2000/svg"
     width="40" height="40" viewBox="0 0 512 512">

    <circle fill="#1a1a1a" cx="256" cy="256" r="256" />

    <!-- Crazy -->
    <g transform="translate(0.000000,512.000000) scale(0.100000,-0.100000)"
       fill="#00ff00" stroke="none">
        <!-- C -->
        <path d="M720 4161 c-133 -43 -231 -157 -276 -321 -25 -91 -25 -293 0 -375 62
-208 178 -300 376 -298 134 1 240 51 300 141 16 25 30 49 30 53 0 7 -191 113
-194 107 -1 -2 -11 -22 -21 -46 -28 -64 -66 -92 -125 -92 -40 0 -55 5 -83 30
-66 57 -104 200 -92 340 12 140 34 201 93 262 65 68 152 58 188 -21 11 -22 23
-41 28 -41 20 0 176 92 176 105 0 25 -90 106 -148 133 -46 21 -74 27 -142 29
-47 1 -96 -1 -110 -6z"/>
        <!-- r -->
        <path d="M1313 3890 c-29 -38 -53 -73 -53 -78 0 -5 12 -19 26 -33 51 -46 54
-68 54 -349 l0 -260 100 0 100 0 0 211 c0 200 1 214 22 248 95 157 187 193
188 74 0 -22 3 -23 100 -23 l100 0 0 30 c0 157 -92 241 -247 227 -73 -7 -124
-27 -175 -67 -41 -34 -48 -36 -48 -16 0 14 -93 106 -107 105 -4 0 -32 -31 -60
-69z"/>
        <!-- a -->
        <path d="M2220 3939 c-54 -9 -139 -44 -172 -70 -16 -13 -14 -20 30 -96 l48
-81 32 24 c103 81 254 80 288 -2 20 -47 19 -67 -3 -55 -34 18 -109 23 -173 11
-153 -28 -245 -118 -257 -251 -10 -104 49 -190 164 -241 40 -17 61 -20 143
-16 85 4 104 9 155 36 l58 32 22 -24 c24 -26 74 -61 78 -55 2 2 24 29 50 60
43 51 46 58 31 70 -37 30 -44 73 -44 252 0 196 -9 239 -64 304 -79 92 -220
129 -386 102z m208 -449 c47 -29 44 -68 -7 -119 -64 -64 -141 -67 -184 -9 -17
23 -19 34 -11 65 18 75 127 109 202 63z"/>
        <!-- z -->
        <path d="M2854 3928 c-2 -3 -7 -40 -10 -81 l-7 -75 128 -7 c70 -4 152 -5 181
-2 l54 6 -86 -81 c-89 -85 -198 -214 -239 -285 -29 -48 -55 -141 -55 -194 l0
-38 303 -4 c166 -3 313 -6 326 -8 23 -4 26 1 37 61 7 36 13 70 13 76 2 22 -89
34 -255 34 l-166 0 17 28 c51 79 113 151 248 284 l150 148 -29 72 -29 73 -288
0 c-159 0 -291 -3 -293 -7z"/>
        <!-- y -->
        <path d="M3628 3932 l-28 -3 0 -105 0 -104 36 0 c52 0 70 -14 118 -88 47 -72
155 -282 186 -363 18 -45 19 -53 5 -85 -22 -52 -73 -113 -101 -120 -35 -9 -53
11 -60 67 l-7 49 -95 0 -95 0 7 -62 c23 -198 159 -284 331 -209 55 24 157 137
193 213 102 214 190 586 180 758 l-3 55 -96 3 -96 3 -6 -53 c-4 -29 -7 -87 -7
-128 0 -41 -7 -131 -16 -199 l-17 -123 -98 192 c-124 245 -162 287 -274 302
-16 2 -42 3 -57 0z"/>
    </g>
    <!-- Color -->
    <g transform="translate(0.000000,512.000000) scale(0.100000,-0.100000)"
       fill="#ff8d04" stroke="none">
        <!-- C -->
        <path d="M2605 3080 c-86 -13 -97 -18 -91 -48 3 -15 8 -48 12 -73 l6 -46 93 5
94 5 3 -394 c3 -373 4 -396 23 -428 30 -50 63 -70 139 -83 51 -8 90 -8 153 0
88 12 189 50 199 76 5 13 -60 146 -72 146 -2 0 -25 -13 -51 -30 -38 -24 -58
-30 -105 -30 -46 0 -59 4 -68 19 -6 13 -10 174 -10 455 l0 436 -137 -1 c-76
-1 -161 -5 -188 -9z"/>
        <!-- o -->
        <path d="M1173 3009 c-232 -91 -337 -490 -204 -775 57 -122 140 -184 274 -205
145 -24 308 45 378 158 21 34 22 36 4 49 -20 15 -170 94 -178 94 -3 0 -10 -15
-16 -33 -6 -18 -24 -48 -39 -67 -25 -29 -36 -34 -85 -38 -55 -4 -58 -3 -95 34
-73 74 -104 215 -83 380 25 190 118 295 223 251 25 -11 41 -27 54 -56 11 -22
23 -41 27 -41 19 0 177 92 177 104 0 28 -74 97 -138 128 -58 29 -78 33 -157
35 -71 2 -101 -1 -142 -18z"/>
        <!-- l -->
        <path d="M4183 2750 c-29 -38 -53 -73 -53 -78 0 -5 11 -17 24 -25 51 -34 56
-63 56 -351 l0 -266 100 0 100 0 0 211 0 211 34 57 c46 74 98 124 131 124 33
0 37 -5 44 -50 6 -37 8 -38 51 -41 25 -2 69 -1 99 3 l54 7 -7 59 c-13 133 -94
197 -235 187 -74 -6 -158 -38 -191 -73 l-21 -23 -58 59 c-31 32 -61 59 -66 58
-6 0 -34 -31 -62 -69z"/>
        <!-- o -->
        <path d="M1948 2797 c-96 -27 -167 -98 -201 -198 -23 -67 -32 -229 -18 -319
27 -173 132 -255 326 -255 70 1 101 6 136 22 59 26 125 92 150 148 42 95 49
323 14 426 -22 64 -75 123 -140 154 -66 33 -192 43 -267 22z m180 -179 c34
-38 42 -73 42 -198 0 -175 -28 -230 -119 -230 -49 0 -95 35 -112 88 -16 46
-15 229 1 276 18 54 62 86 119 86 36 0 52 -5 69 -22z"/>
        <!-- r -->
        <path d="M3522 2792 c-148 -53 -215 -181 -215 -407 0 -138 23 -206 92 -275
135 -135 416 -111 505 43 43 74 60 152 61 277 0 187 -45 286 -157 344 -76 38
-206 46 -286 18z m192 -171 c42 -46 60 -215 35 -330 -21 -100 -117 -135 -184
-68 -41 41 -55 89 -55 188 0 153 46 229 139 229 34 0 53 -5 65 -19z"/>
    </g>
    <!-- Theme -->
    <g transform="translate(0.000000,512.000000) scale(0.100000,-0.100000)"
       fill="#2492ff" stroke="none">
        <!-- T -->
        <path d="M1466 1953 c-86 -4 -88 -4 -81 -26 4 -12 9 -250 12 -529 l5 -508 94
0 94 0 0 256 0 257 44 43 c37 38 49 44 84 44 110 0 124 -34 132 -325 6 -221
16 -279 50 -300 11 -7 155 39 173 55 5 4 3 18 -5 31 -9 17 -15 90 -19 254 -7
269 -15 302 -89 376 -36 36 -58 49 -101 59 -77 19 -165 16 -224 -7 l-50 -19 3
149 c4 158 -1 198 -21 195 -6 -1 -52 -4 -101 -5z"/>
        <!-- h -->
        <path d="M570 1805 l0 -85 115 0 115 0 0 -415 0 -415 105 0 105 0 0 416 0 416
112 -3 112 -4 20 77 c11 42 17 81 12 85 -4 4 -163 9 -352 11 l-344 3 0 -86z"/>
        <!-- e -->
        <path d="M2987 1653 c-73 -23 -78 -26 -71 -46 4 -12 9 -178 11 -369 l4 -348
89 0 89 0 3 243 c3 242 3 242 30 294 31 58 46 72 59 52 5 -8 9 -143 9 -301 l0
-288 90 0 89 0 3 243 c3 226 5 246 26 300 13 31 30 57 37 57 11 0 14 -47 17
-247 3 -221 5 -252 22 -283 11 -19 26 -41 35 -48 27 -23 101 -53 111 -47 17
11 73 129 63 132 -6 2 -19 10 -29 18 -18 12 -19 33 -24 267 -5 233 -7 256 -27
293 -34 65 -57 80 -120 80 -54 0 -57 -1 -102 -51 l-48 -52 -12 33 c-16 46 -43
67 -94 72 -46 5 -91 -11 -127 -47 -18 -18 -18 -17 -25 26 -3 25 -11 44 -18 43
-7 -1 -47 -12 -90 -26z"/>
        <!-- m -->
        <path d="M2394 1642 c-86 -30 -146 -92 -186 -190 -19 -48 -22 -76 -22 -177 0
-101 3 -129 22 -177 29 -72 99 -151 166 -186 47 -25 60 -27 171 -27 100 0 127
4 166 21 46 21 119 79 119 94 0 9 -116 123 -129 128 -5 1 -23 -11 -42 -29 -18
-17 -44 -35 -57 -40 -40 -15 -103 -10 -137 11 -30 19 -85 103 -74 114 9 10
213 26 325 26 93 0 116 3 120 15 9 21 -13 190 -32 254 -23 77 -89 141 -170
164 -77 22 -175 21 -240 -1z m153 -152 c24 0 73 -56 73 -84 0 -29 -10 -31
-149 -40 l-83 -6 6 28 c4 15 15 38 25 52 20 29 80 62 99 55 8 -3 20 -5 29 -5z"/>
        <!-- e -->
        <path d="M3975 1642 c-89 -30 -166 -128 -195 -251 -18 -75 -8 -221 19 -293 27
-71 98 -151 165 -186 47 -25 60 -27 171 -27 138 1 168 10 240 76 l46 42 -33
35 c-18 18 -50 47 -71 64 l-38 31 -32 -30 c-44 -42 -69 -53 -117 -53 -70 0
-128 45 -145 112 -6 25 -5 26 52 33 32 4 132 10 223 14 l165 6 -2 70 c-5 148
-54 277 -122 322 -78 53 -226 68 -326 35z m187 -164 c21 -10 48 -59 48 -85 0
-16 -10 -19 -67 -21 -38 -1 -89 -5 -115 -8 -56 -7 -58 -1 -28 61 32 67 96 88
162 53z"/>
    </g>
</svg>
